# File exported by Houdini 18.0.391 (www.sidefx.com)
# 200 points
# 380 vertices
# 94 primitives
# Bounds: [-0.308106035, -0.451099992, -0.307565629] to [0.305811346, 0.451099992, 0.307430565]
g 
v 0.304810911 -0.437099993 -0.0374260768
v 0.285927236 -0.437099993 -0.112053663
v 0.249077693 -0.437099993 -0.179640517
v 0.196577668 -0.437099993 -0.23593989
v 0.131725952 -0.437099993 -0.277414262
v 0.0585974306 -0.437099993 -0.301457703
v -0.0182130337 -0.437099993 -0.306559443
v -0.093879059 -0.437099993 -0.2923989
v -0.163646325 -0.437099993 -0.25986591
v -0.22313112 -0.437099993 -0.211004525
v -0.268595725 -0.437099993 -0.148884997
v -0.297183514 -0.437099993 -0.0774104446
v -0.307098091 -0.437099993 -0.00107189268
v -0.297716647 -0.437099993 0.075333938
v -0.269628525 -0.437099993 0.147006333
v -0.224598691 -0.437099993 0.209441721
v -0.165456444 -0.437099993 0.258717149
v -0.0959179625 -0.437099993 0.291736424
v -0.0203525834 -0.437099993 0.306424826
v 0.0564914718 -0.437099993 0.301859438
v 0.129786104 -0.437099993 0.278327107
v 0.194925785 -0.437099993 0.237306431
v 0.247817576 -0.437099993 0.181374893
v 0.285138041 -0.437099993 0.114046931
v 0.304542214 -0.437099993 0.0395529568
v 0.286073893 -0.451099992 0.114421248
v 0.305541754 -0.451099992 0.0396827757
v 0.305811346 -0.451099992 -0.0375489146
v 0.286865681 -0.451099992 -0.112421438
v 0.248630956 -0.451099992 0.181970194
v 0.2498952 -0.451099992 -0.180230126
v 0.195565566 -0.451099992 0.2380853
v 0.197222859 -0.451099992 -0.236714274
v 0.130212083 -0.451099992 0.279240608
v 0.132158294 -0.451099992 -0.278324783
v 0.056676887 -0.451099992 0.302850187
v 0.0587897561 -0.451099992 -0.30244714
v -0.0204193834 -0.451099992 0.307430565
v -0.0182728115 -0.451099992 -0.307565629
v -0.0962327793 -0.451099992 0.292693943
v -0.0941871852 -0.451099992 -0.293358594
v -0.165999502 -0.451099992 0.259566307
v -0.164183438 -0.451099992 -0.260718822
v -0.225335851 -0.451099992 0.210129142
v -0.223863468 -0.451099992 -0.211697072
v -0.269477308 -0.451099992 -0.149373665
v -0.298158914 -0.451099992 -0.0776645169
v -0.308106035 -0.451099992 -0.00107541075
v -0.298693806 -0.451099992 0.075581193
v -0.270513475 -0.451099992 0.147488832
v 0.304810911 -0.437099993 -0.0374260768
v 0.285927236 -0.437099993 -0.112053663
v 0.249077693 -0.437099993 -0.179640517
v 0.196577668 -0.437099993 -0.23593989
v 0.131725952 -0.437099993 -0.277414262
v 0.0585974306 -0.437099993 -0.301457703
v -0.0182130337 -0.437099993 -0.306559443
v -0.093879059 -0.437099993 -0.2923989
v -0.163646325 -0.437099993 -0.25986591
v -0.22313112 -0.437099993 -0.211004525
v -0.268595725 -0.437099993 -0.148884997
v -0.297183514 -0.437099993 -0.0774104446
v -0.307098091 -0.437099993 -0.00107189268
v -0.297716647 -0.437099993 0.075333938
v -0.269628525 -0.437099993 0.147006333
v -0.224598691 -0.437099993 0.209441721
v -0.165456444 -0.437099993 0.258717149
v -0.0959179625 -0.437099993 0.291736424
v -0.0203525834 -0.437099993 0.306424826
v 0.0564914718 -0.437099993 0.301859438
v 0.129786104 -0.437099993 0.278327107
v 0.194925785 -0.437099993 0.237306431
v 0.247817576 -0.437099993 0.181374893
v 0.285138041 -0.437099993 0.114046931
v 0.304542214 -0.437099993 0.0395529568
v 0.286073893 -0.451099992 0.114421248
v 0.305541754 -0.451099992 0.0396827757
v 0.305811346 -0.451099992 -0.0375489146
v 0.286865681 -0.451099992 -0.112421438
v 0.248630956 -0.451099992 0.181970194
v 0.2498952 -0.451099992 -0.180230126
v 0.195565566 -0.451099992 0.2380853
v 0.197222859 -0.451099992 -0.236714274
v 0.130212083 -0.451099992 0.279240608
v 0.132158294 -0.451099992 -0.278324783
v 0.056676887 -0.451099992 0.302850187
v 0.0587897561 -0.451099992 -0.30244714
v -0.0204193834 -0.451099992 0.307430565
v -0.0182728115 -0.451099992 -0.307565629
v -0.0962327793 -0.451099992 0.292693943
v -0.0941871852 -0.451099992 -0.293358594
v -0.165999502 -0.451099992 0.259566307
v -0.164183438 -0.451099992 -0.260718822
v -0.225335851 -0.451099992 0.210129142
v -0.223863468 -0.451099992 -0.211697072
v -0.269477308 -0.451099992 -0.149373665
v -0.298158914 -0.451099992 -0.0776645169
v -0.308106035 -0.451099992 -0.00107541075
v -0.298693806 -0.451099992 0.075581193
v -0.270513475 -0.451099992 0.147488832
v 0.304810911 0.437099993 -0.0374260768
v 0.285927236 0.437099993 -0.112053663
v 0.249077693 0.437099993 -0.179640517
v 0.196577668 0.437099993 -0.23593989
v 0.131725952 0.437099993 -0.277414262
v 0.0585974306 0.437099993 -0.301457703
v -0.0182130337 0.437099993 -0.306559443
v -0.093879059 0.437099993 -0.2923989
v -0.163646325 0.437099993 -0.25986591
v -0.22313112 0.437099993 -0.211004525
v -0.268595725 0.437099993 -0.148884997
v -0.297183514 0.437099993 -0.0774104446
v -0.307098091 0.437099993 -0.00107189268
v -0.297716647 0.437099993 0.075333938
v -0.269628525 0.437099993 0.147006333
v -0.224598691 0.437099993 0.209441721
v -0.165456444 0.437099993 0.258717149
v -0.0959179625 0.437099993 0.291736424
v -0.0203525834 0.437099993 0.306424826
v 0.0564914718 0.437099993 0.301859438
v 0.129786104 0.437099993 0.278327107
v 0.194925785 0.437099993 0.237306431
v 0.247817576 0.437099993 0.181374893
v 0.285138041 0.437099993 0.114046931
v 0.304542214 0.437099993 0.0395529568
v 0.286073893 0.451099992 0.114421248
v 0.305541754 0.451099992 0.0396827757
v 0.305811346 0.451099992 -0.0375489146
v 0.286865681 0.451099992 -0.112421438
v 0.248630956 0.451099992 0.181970194
v 0.2498952 0.451099992 -0.180230126
v 0.195565566 0.451099992 0.2380853
v 0.197222859 0.451099992 -0.236714274
v 0.130212083 0.451099992 0.279240608
v 0.132158294 0.451099992 -0.278324783
v 0.056676887 0.451099992 0.302850187
v 0.0587897561 0.451099992 -0.30244714
v -0.0204193834 0.451099992 0.307430565
v -0.0182728115 0.451099992 -0.307565629
v -0.0962327793 0.451099992 0.292693943
v -0.0941871852 0.451099992 -0.293358594
v -0.165999502 0.451099992 0.259566307
v -0.164183438 0.451099992 -0.260718822
v -0.225335851 0.451099992 0.210129142
v -0.223863468 0.451099992 -0.211697072
v -0.269477308 0.451099992 -0.149373665
v -0.298158914 0.451099992 -0.0776645169
v -0.308106035 0.451099992 -0.00107541075
v -0.298693806 0.451099992 0.075581193
v -0.270513475 0.451099992 0.147488832
v 0.304810911 0.437099993 -0.0374260768
v 0.285927236 0.437099993 -0.112053663
v 0.249077693 0.437099993 -0.179640517
v 0.196577668 0.437099993 -0.23593989
v 0.131725952 0.437099993 -0.277414262
v 0.0585974306 0.437099993 -0.301457703
v -0.0182130337 0.437099993 -0.306559443
v -0.093879059 0.437099993 -0.2923989
v -0.163646325 0.437099993 -0.25986591
v -0.22313112 0.437099993 -0.211004525
v -0.268595725 0.437099993 -0.148884997
v -0.297183514 0.437099993 -0.0774104446
v -0.307098091 0.437099993 -0.00107189268
v -0.297716647 0.437099993 0.075333938
v -0.269628525 0.437099993 0.147006333
v -0.224598691 0.437099993 0.209441721
v -0.165456444 0.437099993 0.258717149
v -0.0959179625 0.437099993 0.291736424
v -0.0203525834 0.437099993 0.306424826
v 0.0564914718 0.437099993 0.301859438
v 0.129786104 0.437099993 0.278327107
v 0.194925785 0.437099993 0.237306431
v 0.247817576 0.437099993 0.181374893
v 0.285138041 0.437099993 0.114046931
v 0.304542214 0.437099993 0.0395529568
v 0.286073893 0.451099992 0.114421248
v 0.305541754 0.451099992 0.0396827757
v 0.305811346 0.451099992 -0.0375489146
v 0.286865681 0.451099992 -0.112421438
v 0.248630956 0.451099992 0.181970194
v 0.2498952 0.451099992 -0.180230126
v 0.195565566 0.451099992 0.2380853
v 0.197222859 0.451099992 -0.236714274
v 0.130212083 0.451099992 0.279240608
v 0.132158294 0.451099992 -0.278324783
v 0.056676887 0.451099992 0.302850187
v 0.0587897561 0.451099992 -0.30244714
v -0.0204193834 0.451099992 0.307430565
v -0.0182728115 0.451099992 -0.307565629
v -0.0962327793 0.451099992 0.292693943
v -0.0941871852 0.451099992 -0.293358594
v -0.165999502 0.451099992 0.259566307
v -0.164183438 0.451099992 -0.260718822
v -0.225335851 0.451099992 0.210129142
v -0.223863468 0.451099992 -0.211697072
v -0.269477308 0.451099992 -0.149373665
v -0.298158914 0.451099992 -0.0776645169
v -0.308106035 0.451099992 -0.00107541075
v -0.298693806 0.451099992 0.075581193
v -0.270513475 0.451099992 0.147488832
vt 0.25933066 0.0292702094 0
vt 0.258548081 0 0
vt 0.414806008 0 0
vt 0.415077418 0.0292702094 0
vt 0.5762766 0 0
vt 0.576019764 0.0292702094 0
vt 0.732814729 0 0
vt 0.732045829 0.0292702094 0
vt 0.874584377 0 0
vt 0.873351634 0.0292702094 0
vt 0.99267745 0 0
vt 0.991058409 0.0292702094 0
vt 0.00134891877 0.102455638 0
vt 0 0.073185429 0
vt 0.136032403 0.073185429 0
vt 0.136936307 0.102455638 0
vt 0.289426148 0.073185429 0
vt 0.289828271 0.102455638 0
vt 0.450543165 0.073185429 0
vt 0.450418174 0.102455638 0
vt 0.609259546 0.073185429 0
vt 0.608615398 0.102455638 0
vt 0.755602777 0.073185429 0
vt 0.754479825 0.102455638 0
vt 0.880377591 0.073185429 0
vt 0.878846467 0.102455638 0
vt 0.00144792709 0.0658629239 0
vt 0 0.0365927145 0
vt 0.130301386 0.0365927145 0
vt 0.131323054 0.0658629239 0
vt 0.280225784 0.0365927145 0
vt 0.28075701 0.0658629239 0
vt 0.440352917 0.0365927145 0
vt 0.440360248 0.0658629239 0
vt 0.600621164 0.0365927145 0
vt 0.600104153 0.0658629239 0
vt 0.750960529 0.0365927145 0
vt 0.74995178 0.0658629239 0
vt 0.88192451 0.0365927145 0
vt 0.880487263 0.0658629239 0
vt 0.00154120312 0.139048353 0
vt 0 0.109778143 0
vt 0.124056257 0.109778143 0
vt 0.125191644 0.139048353 0
vt 0.269919574 0.109778143 0
vt 0.270577818 0.139048353 0
vt 0.428424895 0.109778143 0
vt 0.428564548 0.139048353 0
vt 0.589612305 0.109778143 0
vt 0.589224696 0.139048353 0
vt 0.743354559 0.109778143 0
vt 0.742463946 0.139048353 0
vt 0.879990995 0.109778143 0
vt 0.878653347 0.139048353 0
vt 0.0016284039 0.0292702094 0
vt 0 0 0
vt 0.117321506 0 0
vt 0.118566118 0.0292702094 0
vt 0.368472725 0.0311985556 0
vt 0.24696213 0 0
vt 0.12151055 0 0
vt 0 0.0311985891 0
vt 0.59029454 0.106335327 0
vt 0.48036021 0.0458984375 0
vt 0.111887448 0.0458984375 0
vt 0.001953125 0.106335327 0
vt 0.771242321 0.268494934 0
vt 0.679791808 0.182617188 0
vt 0.0914505199 0.182617188 0
vt 0 0.268494934 0
vt 0.905683517 0.47311002 0
vt 0.838462949 0.3671875 0
vt 0.0672204196 0.3671875 0
vt 0 0.47311002 0
vt 0.983216882 0.70915556 0
vt 0.94445008 0.58984375 0
vt 0.038766712 0.58984375 0
vt 0 0.70915556 0
vt 0.998971283 0.961141706 0
vt 0.991094053 0.835937619 0
vt 0.00787723064 0.8359375 0
vt 0 0.961141944 0
vt 0.975464225 0.834167302 0
vt 0.998971641 0.7109375 0
vt 0 0.71093756 0
vt 0.0235073976 0.834167302 0
vt 0.898541987 0.588121593 0
vt 0.951956809 0.474609375 0
vt 0 0.474609375 0
vt 0.0534147732 0.588121593 0
vt 0.765160978 0.366193593 0
vt 0.845126927 0.26953125 0
vt 0 0.26953125 0
vt 0.0799660683 0.366193682 0
vt 0.370117188 0 0
vt 0.486759394 0.0461819582 0
vt 0.611222088 0.061905168 0
vt 0.735684693 0.0461819395 0
vt 0.85232693 1.15647998e-08 0
vt 0.584678948 0.181160599 0
vt 0.686171651 0.107421875 0
vt 0.0009765625 0.107421875 0
vt 0.102469236 0.181160599 0
vn 0.926089048 0.0718095079 0.370408595
vn 0.926088989 0.0718095005 0.370408475
vn 0.989110947 0.0718095079 0.128462762
vn 0.989111125 0.0718095154 0.128462672
vn 0.989111125 0.0718095154 0.128462672
vn 0.989110947 0.0718095079 0.128462762
vn 0.989983678 0.0718103647 -0.12155471
vn 0.989983678 0.0718103647 -0.121554732
vn 0.989983678 0.0718103647 -0.121554732
vn 0.989983678 0.0718103647 -0.12155471
vn 0.928652108 0.0718096942 -0.363934755
vn 0.928652287 0.0718096942 -0.363934726
vn 0.928652287 0.0718096942 -0.363934726
vn 0.928652108 0.0718096942 -0.363934755
vn 0.808969855 0.0718103647 -0.583447576
vn 0.808969975 0.0718103647 -0.583447456
vn 0.808969975 0.0718103647 -0.583447456
vn 0.808969855 0.0718103647 -0.583447576
vn 0.638456941 0.0718097687 -0.766300201
vn 0.638456941 0.0718097761 -0.766300261
vn 0.638456941 0.0718097761 -0.766300261
vn 0.638456941 0.0718097687 -0.766300201
vn 0.427827656 0.0718107074 -0.901003122
vn 0.427827656 0.0718107149 -0.901003182
vn 0.427827656 0.0718107149 -0.901003182
vn 0.427827656 0.0718107074 -0.901003122
vn 0.190316439 0.0718109682 -0.979092956
vn 0.190316379 0.0718109757 -0.979092836
vn 0.190316379 0.0718109757 -0.979092836
vn 0.190316439 0.0718109682 -0.979092956
vn -0.0591535605 0.0718112886 -0.99566263
vn -0.0591535233 0.0718112811 -0.99566263
vn -0.0591535233 0.0718112811 -0.99566263
vn -0.0591535605 0.0718112886 -0.99566263
vn -0.304906309 0.0718102828 -0.949671209
vn -0.304906189 0.0718102828 -0.949671328
vn -0.304906189 0.0718102828 -0.949671328
vn -0.304906309 0.0718102828 -0.949671209
vn -0.531500578 0.0718100891 -0.844008505
vn -0.531500578 0.0718100891 -0.844008625
vn -0.531500578 0.0718100891 -0.844008625
vn -0.531500578 0.0718100891 -0.844008505
vn -0.724698961 0.0718102157 -0.685313642
vn -0.72469902 0.0718102008 -0.685313523
vn -0.72469902 0.0718102008 -0.685313523
vn -0.724698961 0.0718102157 -0.685313642
vn -0.87236172 0.0718113258 -0.483557969
vn -0.87236166 0.0718113184 -0.48355791
vn -0.87236166 0.0718113184 -0.48355791
vn -0.87236172 0.0718113258 -0.483557969
vn -0.965210915 0.0718103796 -0.251418114
vn -0.965210974 0.0718103945 -0.251418233
vn -0.965210974 0.0718103945 -0.251418233
vn -0.965210915 0.0718103796 -0.251418114
vn -0.997412205 0.0718105882 -0.00348132057
vn -0.997412264 0.0718106106 -0.00348127889
vn -0.997412264 0.0718106106 -0.00348127889
vn -0.997412205 0.0718105882 -0.00348132057
vn -0.966942549 0.0718109384 0.244674146
vn -0.966942489 0.0718109459 0.244674116
vn -0.966942489 0.0718109459 0.244674116
vn -0.966942549 0.0718109384 0.244674146
vn -0.87571615 0.0718098283 0.477456272
vn -0.875716329 0.0718098432 0.477456123
vn -0.875716329 0.0718098432 0.477456123
vn -0.87571615 0.0718098283 0.477456272
vn -0.729465425 0.071810171 0.68023771
vn -0.729465485 0.0718101785 0.68023777
vn -0.729465485 0.0718101785 0.68023777
vn -0.729465425 0.071810171 0.68023771
vn -0.537379563 0.0718111768 0.840277672
vn -0.537379563 0.0718111768 0.840277493
vn -0.537379563 0.0718111768 0.840277493
vn -0.537379563 0.0718111768 0.840277672
vn -0.311528265 0.0718101487 0.9475196
vn -0.311528295 0.0718101561 0.9475196
vn -0.311528295 0.0718101561 0.9475196
vn -0.311528265 0.0718101487 0.9475196
vn -0.0661026314 0.0718109086 0.99522537
vn -0.0661026165 0.0718109012 0.99522543
vn -0.0661026165 0.0718109012 0.99522543
vn -0.0661026314 0.0718109086 0.99522537
vn 0.183476627 0.0718104839 0.980397642
vn 0.183476493 0.0718104914 0.980397642
vn 0.183476493 0.0718104914 0.980397642
vn 0.183476627 0.0718104839 0.980397642
vn 0.421527326 0.0718098208 0.903967917
vn 0.421527326 0.0718098208 0.903967977
vn 0.421527326 0.0718098208 0.903967977
vn 0.421527326 0.0718098208 0.903967917
vn 0.633092046 0.0718103349 0.770738363
vn 0.633092105 0.0718103424 0.770738423
vn 0.633092105 0.0718103424 0.770738423
vn 0.633092046 0.0718103349 0.770738363
vn 0.804877281 0.0718108118 0.589080513
vn 0.804877222 0.0718108192 0.589080632
vn 0.804877222 0.0718108192 0.589080632
vn 0.804877281 0.0718108118 0.589080513
vn 0.926088989 0.0718095005 0.370408475
vn 0.926089048 0.0718095079 0.370408595
vn 0 1 0
vn 0 1 0
vn 0 1 0
vn 0 1 0
vn 0 1 0
vn 0 1 0
vn 0 1 0
vn 0 1 0
vn 0 1 0
vn 0 1 0
vn 0 1 0
vn 0 1 0
vn 0 1 0
vn 0 1 0
vn 0 1 0
vn 0 1 0
vn 0 1 0
vn 0 1 0
vn 0 1 0
vn 0 1 0
vn 0 1 0
vn 0 1 0
vn 0 1 0
vn 0 1 0
vn 0 1 0
vn 0 1 0
vn 0 1 0
vn 0 1 0
vn 0 1 0
vn 0 1 0
vn 0 1 0
vn 0 1 0
vn 0 1 0
vn 0 1 0
vn 0 1 0
vn 0 1 0
vn 0 1 0
vn 0 0.99999994 0
vn 0 1 0
vn 0 1 0
vn 0 1 0
vn 0 1 0
vn 0 1 0
vn 0 1 0
vn 0 1 0
vn 0 -1 0
vn 0 -1 0
vn 0 -1 0
vn 0 -1 0
vn 0 -1 0
vn 0 -1 0
vn 0 -1 0
vn 0 -1 0
vn 0 -1 0
vn 0 -1 0
vn 0 -1 0
vn 0 -1 0
vn 0 -1 0
vn 0 -1 0
vn 0 -1 0
vn 0 -1 0
vn 0 -1 0
vn 0 -1 0
vn 0 -1 0
vn 0 -1 0
vn 0 -1 0
vn 0 -1 0
vn 0 -1 0
vn 0 -1 0
vn 0 -1 0
vn 0 -1 0
vn 0 -1 0
vn 0 -1 0
vn 0 -1 0
vn 0 -1 0
vn 0 -1 0
vn 0 -1 0
vn 0 -1 0
vn 0 -1 0
vn 0 -1 0
vn 0 -1 0
vn 0 -1 0
vn 0 -1 0
vn 0 -1 0
vn 0 -1 0
vn 0 -1 0
vn 0 -1 0
vn 0 -1 0
vn 0 -1 0
vn 0 -1 0
vn 0.926089048 -0.0718095079 0.370408595
vn 0.989111125 -0.0718095154 0.128462672
vn 0.989110947 -0.0718095079 0.128462762
vn 0.926088989 -0.0718095005 0.370408475
vn 0.989111125 -0.0718095154 0.128462672
vn 0.989983678 -0.0718103647 -0.121554732
vn 0.989983678 -0.0718103647 -0.12155471
vn 0.989110947 -0.0718095079 0.128462762
vn 0.989983678 -0.0718103647 -0.121554732
vn 0.928652287 -0.0718096942 -0.363934726
vn 0.928652108 -0.0718096942 -0.363934755
vn 0.989983678 -0.0718103647 -0.12155471
vn 0.928652287 -0.0718096942 -0.363934726
vn 0.808969975 -0.0718103647 -0.583447456
vn 0.808969855 -0.0718103647 -0.583447576
vn 0.928652108 -0.0718096942 -0.363934755
vn 0.808969975 -0.0718103647 -0.583447456
vn 0.638456941 -0.0718097761 -0.766300261
vn 0.638456941 -0.0718097687 -0.766300201
vn 0.808969855 -0.0718103647 -0.583447576
vn 0.638456941 -0.0718097761 -0.766300261
vn 0.427827656 -0.0718107149 -0.901003182
vn 0.427827656 -0.0718107074 -0.901003122
vn 0.638456941 -0.0718097687 -0.766300201
vn 0.427827656 -0.0718107149 -0.901003182
vn 0.190316379 -0.0718109757 -0.979092836
vn 0.190316439 -0.0718109682 -0.979092956
vn 0.427827656 -0.0718107074 -0.901003122
vn 0.190316379 -0.0718109757 -0.979092836
vn -0.0591535233 -0.0718112811 -0.99566263
vn -0.0591535605 -0.0718112886 -0.99566263
vn 0.190316439 -0.0718109682 -0.979092956
vn -0.0591535233 -0.0718112811 -0.99566263
vn -0.304906189 -0.0718102828 -0.949671328
vn -0.304906309 -0.0718102828 -0.949671209
vn -0.0591535605 -0.0718112886 -0.99566263
vn -0.304906189 -0.0718102828 -0.949671328
vn -0.531500578 -0.0718100891 -0.844008625
vn -0.531500578 -0.0718100891 -0.844008505
vn -0.304906309 -0.0718102828 -0.949671209
vn -0.531500578 -0.0718100891 -0.844008625
vn -0.72469902 -0.0718102008 -0.685313523
vn -0.724698961 -0.0718102157 -0.685313642
vn -0.531500578 -0.0718100891 -0.844008505
vn -0.72469902 -0.0718102008 -0.685313523
vn -0.87236166 -0.0718113184 -0.48355791
vn -0.87236172 -0.0718113258 -0.483557969
vn -0.724698961 -0.0718102157 -0.685313642
vn -0.87236166 -0.0718113184 -0.48355791
vn -0.965210974 -0.0718103945 -0.251418233
vn -0.965210915 -0.0718103796 -0.251418114
vn -0.87236172 -0.0718113258 -0.483557969
vn -0.965210974 -0.0718103945 -0.251418233
vn -0.997412264 -0.0718106106 -0.00348127889
vn -0.997412205 -0.0718105882 -0.00348132057
vn -0.965210915 -0.0718103796 -0.251418114
vn -0.997412264 -0.0718106106 -0.00348127889
vn -0.966942489 -0.0718109459 0.244674116
vn -0.966942549 -0.0718109384 0.244674146
vn -0.997412205 -0.0718105882 -0.00348132057
vn -0.966942489 -0.0718109459 0.244674116
vn -0.875716329 -0.0718098432 0.477456123
vn -0.87571615 -0.0718098283 0.477456272
vn -0.966942549 -0.0718109384 0.244674146
vn -0.875716329 -0.0718098432 0.477456123
vn -0.729465485 -0.0718101785 0.68023777
vn -0.729465425 -0.071810171 0.68023771
vn -0.87571615 -0.0718098283 0.477456272
vn -0.729465485 -0.0718101785 0.68023777
vn -0.537379563 -0.0718111768 0.840277493
vn -0.537379563 -0.0718111768 0.840277672
vn -0.729465425 -0.071810171 0.68023771
vn -0.537379563 -0.0718111768 0.840277493
vn -0.311528295 -0.0718101561 0.9475196
vn -0.311528265 -0.0718101487 0.9475196
vn -0.537379563 -0.0718111768 0.840277672
vn -0.311528295 -0.0718101561 0.9475196
vn -0.0661026165 -0.0718109012 0.99522543
vn -0.0661026314 -0.0718109086 0.99522537
vn -0.311528265 -0.0718101487 0.9475196
vn -0.0661026165 -0.0718109012 0.99522543
vn 0.183476493 -0.0718104914 0.980397642
vn 0.183476627 -0.0718104839 0.980397642
vn -0.0661026314 -0.0718109086 0.99522537
vn 0.183476493 -0.0718104914 0.980397642
vn 0.421527326 -0.0718098208 0.903967977
vn 0.421527326 -0.0718098208 0.903967917
vn 0.183476627 -0.0718104839 0.980397642
vn 0.421527326 -0.0718098208 0.903967977
vn 0.633092105 -0.0718103424 0.770738423
vn 0.633092046 -0.0718103349 0.770738363
vn 0.421527326 -0.0718098208 0.903967917
vn 0.633092105 -0.0718103424 0.770738423
vn 0.804877222 -0.0718108192 0.589080632
vn 0.804877281 -0.0718108118 0.589080513
vn 0.633092046 -0.0718103349 0.770738363
vn 0.804877222 -0.0718108192 0.589080632
vn 0.926089048 -0.0718095079 0.370408595
vn 0.926088989 -0.0718095005 0.370408475
vn 0.804877281 -0.0718108118 0.589080513
vn 0 -1 0
vn 0 -1 0
vn 0 -1 0
vn 0 -1 0
vn 0 -1 0
vn 0 -1 0
vn 0 -1 0
vn 0 -1 0
vn 0 -1 0
vn 0 -1 0
vn 0 -1 0
vn 0 -1 0
vn 0 -1 0
vn 0 -1 0
vn 0 -1 0
vn 0 -1 0
vn 0 -1 0
vn 0 -1 0
vn 0 -1 0
vn 0 -1 0
vn 0 -1 0
vn 0 -1 0
vn 0 -1 0
vn 0 -1 0
vn 0 -1 0
vn 0 -1 0
vn 0 -1 0
vn 0 -1 0
vn 0 -1 0
vn 0 -1 0
vn 0 -1 0
vn 0 -1 0
vn 0 -1 0
vn 0 -1 0
vn 0 -1 0
vn 0 -1 0
vn 0 -1 0
vn 0 -1 0
vn 0 -1 0
vn 0 -1 0
vn 0 -0.99999994 0
vn 0 -1 0
vn 0 -1 0
vn 0 -1 0
vn 0 -1 0
vn 0 1 0
vn 0 1 0
vn 0 1 0
vn 0 1 0
vn 0 1 0
vn 0 1 0
vn 0 1 0
vn 0 1 0
vn 0 1 0
vn 0 1 0
vn 0 1 0
vn 0 1 0
vn 0 1 0
vn 0 1 0
vn 0 1 0
vn 0 1 0
vn 0 1 0
vn 0 1 0
vn 0 1 0
vn 0 1 0
vn 0 1 0
vn 0 1 0
vn 0 1 0
vn 0 1 0
vn 0 1 0
vn 0 1 0
vn 0 1 0
vn 0 1 0
vn 0 1 0
vn 0 1 0
vn 0 1 0
vn 0 1 0
vn 0 1 0
vn 0 1 0
vn 0 1 0
vn 0 1 0
vn 0 1 0
vn 0 1 0
vn 0 1 0
vn 0 1 0
vn 0 1 0
vn 0 1 0
vn 0 1 0
vn 0 1 0
vn 0 1 0
g woodDisks
f 24/1/1 26/2/2 27/3/3 25/4/4
f 25/4/5 27/3/6 28/5/7 1/6/8
f 1/6/9 28/5/10 29/7/11 2/8/12
f 2/8/13 29/7/14 31/9/15 3/10/16
f 3/10/17 31/9/18 33/11/19 4/12/20
f 4/13/21 33/14/22 35/15/23 5/16/24
f 5/16/25 35/15/26 37/17/27 6/18/28
f 6/18/29 37/17/30 39/19/31 7/20/32
f 7/20/33 39/19/34 41/21/35 8/22/36
f 8/22/37 41/21/38 43/23/39 9/24/40
f 9/24/41 43/23/42 45/25/43 10/26/44
f 10/27/45 45/28/46 46/29/47 11/30/48
f 11/30/49 46/29/50 47/31/51 12/32/52
f 12/32/53 47/31/54 48/33/55 13/34/56
f 13/34/57 48/33/58 49/35/59 14/36/60
f 14/36/61 49/35/62 50/37/63 15/38/64
f 15/38/65 50/37/66 44/39/67 16/40/68
f 16/41/69 44/42/70 42/43/71 17/44/72
f 17/44/73 42/43/74 40/45/75 18/46/76
f 18/46/77 40/45/78 38/47/79 19/48/80
f 19/48/81 38/47/82 36/49/83 20/50/84
f 20/50/85 36/49/86 34/51/87 21/52/88
f 21/52/89 34/51/90 32/53/91 22/54/92
f 22/55/93 32/56/94 30/57/95 23/58/96
f 23/58/97 30/57/98 26/2/99 24/1/100
f 74/59/101 75/60/102 51/61/103 52/62/104
f 73/63/105 74/64/106 52/65/107 53/66/108
f 72/67/109 73/68/110 53/69/111 54/70/112
f 71/71/113 72/72/114 54/73/115 55/74/116
f 70/75/117 71/76/118 55/77/119 56/78/120
f 69/79/121 70/80/122 56/81/123 57/82/124
f 68/83/125 69/84/126 57/85/127 58/86/128
f 67/87/129 68/88/130 58/89/131 59/90/132
f 66/91/133 67/92/134 59/93/135 60/94/136
f 61/95/137 62/96/138 63/97/139 64/98/140 65/99/141
f 65/100/142 66/101/143 60/102/144 61/103/145
f 76/59/146 79/62/147 78/61/148 77/60/149
f 80/63/150 81/66/151 79/65/152 76/64/153
f 82/67/154 83/70/155 81/69/156 80/68/157
f 84/71/158 85/74/159 83/73/160 82/72/161
f 86/75/162 87/78/163 85/77/164 84/76/165
f 88/79/166 89/82/167 87/81/168 86/80/169
f 90/83/170 91/86/171 89/85/172 88/84/173
f 92/87/174 93/90/175 91/89/176 90/88/177
f 94/91/178 95/94/179 93/93/180 92/92/181
f 96/95/182 100/99/183 99/98/184 98/97/185 97/96/186
f 100/100/187 96/103/188 95/102/189 94/101/190
f 124/1/191 125/4/192 127/3/193 126/2/194
f 125/4/195 101/6/196 128/5/197 127/3/198
f 101/6/199 102/8/200 129/7/201 128/5/202
f 102/8/203 103/10/204 131/9/205 129/7/206
f 103/10/207 104/12/208 133/11/209 131/9/210
f 104/13/211 105/16/212 135/15/213 133/14/214
f 105/16/215 106/18/216 137/17/217 135/15/218
f 106/18/219 107/20/220 139/19/221 137/17/222
f 107/20/223 108/22/224 141/21/225 139/19/226
f 108/22/227 109/24/228 143/23/229 141/21/230
f 109/24/231 110/26/232 145/25/233 143/23/234
f 110/27/235 111/30/236 146/29/237 145/28/238
f 111/30/239 112/32/240 147/31/241 146/29/242
f 112/32/243 113/34/244 148/33/245 147/31/246
f 113/34/247 114/36/248 149/35/249 148/33/250
f 114/36/251 115/38/252 150/37/253 149/35/254
f 115/38/255 116/40/256 144/39/257 150/37/258
f 116/41/259 117/44/260 142/43/261 144/42/262
f 117/44/263 118/46/264 140/45/265 142/43/266
f 118/46/267 119/48/268 138/47/269 140/45/270
f 119/48/271 120/50/272 136/49/273 138/47/274
f 120/50/275 121/52/276 134/51/277 136/49/278
f 121/52/279 122/54/280 132/53/281 134/51/282
f 122/55/283 123/58/284 130/57/285 132/56/286
f 123/58/287 124/1/288 126/2/289 130/57/290
f 174/59/291 152/62/292 151/61/293 175/60/294
f 173/63/295 153/66/296 152/65/297 174/64/298
f 172/67/299 154/70/300 153/69/301 173/68/302
f 171/71/303 155/74/304 154/73/305 172/72/306
f 170/75/307 156/78/308 155/77/309 171/76/310
f 169/79/311 157/82/312 156/81/313 170/80/314
f 168/83/315 158/86/316 157/85/317 169/84/318
f 167/87/319 159/90/320 158/89/321 168/88/322
f 166/91/323 160/94/324 159/93/325 167/92/326
f 161/95/327 165/99/328 164/98/329 163/97/330 162/96/331
f 165/100/332 161/103/333 160/102/334 166/101/335
f 176/59/336 177/60/337 178/61/338 179/62/339
f 180/63/340 176/64/341 179/65/342 181/66/343
f 182/67/344 180/68/345 181/69/346 183/70/347
f 184/71/348 182/72/349 183/73/350 185/74/351
f 186/75/352 184/76/353 185/77/354 187/78/355
f 188/79/356 186/80/357 187/81/358 189/82/359
f 190/83/360 188/84/361 189/85/362 191/86/363
f 192/87/364 190/88/365 191/89/366 193/90/367
f 194/91/368 192/92/369 193/93/370 195/94/371
f 196/95/372 197/96/373 198/97/374 199/98/375 200/99/376
f 200/100/377 194/101/378 195/102/379 196/103/380
